# xmcd
# 
# Track frame offsets:
#     182
#     19472
#     40747
#     54002
#     77247
#     94307
#     127965
#     144105
#     153677
#     170427
#     188792
#     208135
#     231382
#     253685
#     284842
#     317652
# 
# Disc length: 4555
# 
# Revision: 2
# Processed by: cddbd v1.5.2PL0 Copyright (c) Steve Scherf et al.
# Submitted via: fre:ac v1.0.17
# 
DISCID=e511c910
DTITLE=The Allman Brothers Band - A Decade Of Hits 1969-1979
DYEAR=1991
DGENRE=Southern Rock
TTITLE0=Statesboro Blues
TTITLE1=Ramblin' Man
TTITLE2=Midnight Rider
TTITLE3=Southbound
TTITLE4=Melissa
TTITLE5=Jessica
TTITLE6=Ain't Wastin' Time No More
TTITLE7=Little Martha
TTITLE8=Crazy Love
TTITLE9=Revival
TTITLE10=Wasted Words
TTITLE11=Blue Sky
TTITLE12=One Way Out
TTITLE13=In Memory Of Elizabeth Reed
TTITLE14=Dreams
TTITLE15=Whipping Post
EXTD=
EXTT0=
EXTT1=
EXTT2=
EXTT3=
EXTT4=
EXTT5=
EXTT6=
EXTT7=
EXTT8=
EXTT9=
EXTT10=
EXTT11=
EXTT12=
EXTT13=
EXTT14=
EXTT15=
PLAYORDER=
